<svg width="774" height="777" viewBox="0 0 774 777" fill="none" xmlns="http://www.w3.org/2000/svg">
<path d="M112.382 161.021C97.0482 188.533 79.4365 217.153 72.7394 248.127C68.5896 267.32 57.7742 285.887 50.1902 303.955C43.8252 319.118 45.2398 331.555 43.2799 347.235C41.399 362.282 32.3297 376.303 29.8231 391.97C27.0302 409.425 20.7306 424.305 20.7306 442.342C20.7306 469.74 18.4908 498.493 22.3673 525.629C25.8791 550.212 24.212 575.426 39.6429 596.368C58.2464 621.615 76.0725 654.869 103.29 671.653C154.686 703.347 216.882 732.835 276.046 746.211C300.618 751.766 322.576 756.758 347.877 756.758C383.799 756.758 418.887 750.212 454.44 750.212C477.206 750.212 494.567 743.263 516.814 740.392C533.783 738.203 566.028 724.27 574.097 709.478C580.672 697.423 595.391 688.15 603.375 676.745C613.767 661.899 623.26 645.221 636.107 632.374C647.821 620.66 650.303 606.491 656.474 590.549C661.889 576.56 677.022 565.275 681.933 550.542" stroke="#333333" stroke-width="40" stroke-linecap="round" stroke-linejoin="round"/>
<path d="M102.562 75.917C96.8603 85.8951 96.1852 102.925 88.7416 111.196C84.9591 115.398 79.9613 125.632 79.6492 131.563C78.5521 152.407 84.5214 169.548 109.109 170.842C117.501 171.284 122.236 180.662 132.022 180.662C149.7 180.662 173.462 179.465 189.486 172.297C210.964 162.688 235.482 165.887 257.861 157.749C308.378 139.379 373.779 141.383 428.072 141.383C445.854 141.383 454.537 141.913 465.896 156.112C478.019 171.266 514.768 183.935 534.635 183.935" stroke="#333333" stroke-width="40" stroke-linecap="round" stroke-linejoin="round"/>
<path d="M557.549 183.935C557.549 225.925 572.776 268.68 583.735 309.774C585.909 317.925 586.987 343.476 593.555 347.417C600.435 351.545 611.766 375.022 614.831 383.605C621.948 403.531 640.198 422.884 662.294 422.884C726.157 422.884 753.945 341.479 753.945 288.861C753.945 272.239 750.672 256.438 750.672 239.762C750.672 226.338 752.245 211.743 748.854 198.664C743.829 179.282 737.579 165.122 737.579 144.473C737.579 132.067 729.95 121.621 721.94 112.65C710.447 99.777 698.982 89.2301 684.479 79.1896C674.718 72.4316 664 61.2463 653.201 57.004C637.531 50.8477 625.231 39.1899 609.194 35.9095C594.852 32.976 576.668 26.8171 562.459 26.8171C483.393 26.8171 404.568 20.2705 325.146 20.2705C316.626 20.2705 306.531 25.1734 298.232 27.5445C281.594 32.2982 263.538 32.1425 246.587 35.9095C236.327 38.1895 224.282 36.6369 213.854 36.6369C202.298 36.6369 195.515 45.0393 184.395 46.2749C173.581 47.4765 160.017 49.73 149.662 49.73C136.226 49.73 134.148 59.6439 123.657 62.6413C108.777 66.8928 95.4984 71.7829 86.1963 85.7361" stroke="#333333" stroke-width="40" stroke-linecap="round" stroke-linejoin="round"/>
<path d="M71.9902 259.891C91.0059 258.101 110.972 256.835 130.05 256.835C143.301 256.835 156.921 261.904 169.775 264.474" stroke="#333333" stroke-width="40" stroke-linecap="round" stroke-linejoin="round"/>
<path d="M314.925 273.641C330.472 271.103 343.901 274.057 359.318 275.084C366.872 275.588 373.87 274.811 381.303 276.697C387.531 278.278 392.63 282.809 398.959 282.809" stroke="#333333" stroke-width="40" stroke-linecap="round" stroke-linejoin="round"/>
<path d="M56.7121 298.089C52.8366 316.175 50.6006 332 50.6006 350.716C50.6006 366.595 70.687 377.539 85.2327 377.539C100.835 377.539 133.875 385.768 146.773 372.87C149.564 370.078 152.713 366.219 156.025 364.127C161.356 360.76 160.377 356.696 162.9 351.65C166.056 345.338 164.495 336.726 167.399 330.089C172.05 319.458 165.785 305.244 158.232 298.089C153.228 293.348 142.551 290.117 135.823 287.393C129.184 284.706 120.03 281.536 112.904 281.282C100.204 280.828 87.9012 279.754 75.0468 279.754C66.8391 279.754 62.8263 283.952 58.5796 289.261C57.0006 291.234 53.6564 295.471 53.6564 298.089" stroke="#333333" stroke-width="40" stroke-linecap="round" stroke-linejoin="round"/>
<path d="M275.711 310.267C271.455 328.286 269 344.053 269 362.699C269 378.519 291.055 389.423 307.027 389.423C324.159 389.423 360.437 397.622 374.599 384.772C377.665 381.99 381.122 378.145 384.759 376.061C390.612 372.707 389.537 368.657 392.308 363.629C395.773 357.341 394.059 348.762 397.248 342.149C402.355 331.557 395.476 317.396 387.182 310.267C381.688 305.544 369.964 302.324 362.576 299.611C355.286 296.934 345.235 293.776 337.411 293.522C323.466 293.07 309.957 292 295.843 292C286.83 292 282.424 296.183 277.761 301.472C276.027 303.438 272.355 307.659 272.355 310.267" stroke="#333333" stroke-width="40" stroke-linecap="round" stroke-linejoin="round"/>
<path d="M172.831 310.312C184.827 312.652 195.193 310.312 206.784 310.312C214.952 310.312 222.731 311.839 230.891 311.839C239.746 311.839 250.722 311.06 258.393 314.895" stroke="#333333" stroke-width="40" stroke-linecap="round" stroke-linejoin="round"/>
<path d="M183.526 371.427C179.271 377.455 177.415 381.405 177.415 388.488C177.415 396.339 175.289 402.862 174.274 410.473C172.738 421.993 171.076 434.016 167.908 445.105C165.127 454.838 165.689 468.511 166.804 478.549C167.724 486.83 175.754 493.855 181.998 498.581C189.614 504.344 199.374 505.751 206.444 510.465" stroke="#333333" stroke-width="40" stroke-linecap="round" stroke-linejoin="round"/>
<path d="M134.634 553.245C138.981 559.541 144.482 564.384 151.95 566.657C167.216 571.303 183.433 575.16 199.06 578.286C233.449 585.163 268.548 592.09 303.72 591.442C330.112 590.957 347.051 572.95 367.467 558.763C374.946 553.565 381.46 548.337 388.009 542.041C389.927 540.196 390.854 537.435 392.847 536.438" stroke="#333333" stroke-width="40" stroke-linecap="round" stroke-linejoin="round"/>
<ellipse cx="111" cy="337.75" rx="15" ry="18.75" fill="#333333"/>
<ellipse cx="335" cy="350.75" rx="15" ry="18.75" fill="#333333"/>
<path d="M398.959 342.397C414.746 336.007 429.226 326.334 445.475 321.006C457.721 316.991 470.478 312.466 482.993 309.462C493.379 306.97 505.568 310.225 516.097 310.311C533.767 310.456 551.445 311.195 568.555 316.083C571.56 316.942 576.759 318.425 579.25 320.157C583.69 323.246 589.487 322.382 594.529 324.062" stroke="#333333" stroke-width="40" stroke-linecap="round" stroke-linejoin="round"/>
</svg>
